<svg width="50" height="50" viewBox="60 -900 840 840" fill="none" xmlns="http://www.w3.org/2000/svg">
<!-- Medical record: Material Symbols Rounded draft (weight 200) with text lines and the set's paw -->
<path fill="white" d="M264.62-120q-27.62 0-46.12-18.5Q200-157 200-184.62v-590.76q0-27.62 18.5-46.12Q237-840 264.62-840h288.53q12.93 0 25.12 5.23 12.19 5.23 20.88 13.92l141.7 141.7q8.69 8.69 13.92 20.88t5.23 25.12v448.53q0 27.62-18.5 46.12Q723-120 695.38-120H264.62ZM560-672.31V-800H264.62q-9.24 0-16.93 7.69-7.69 7.69-7.69 16.93v590.76q0 9.24 7.69 16.93 7.69 7.69 16.93 7.69h430.76q9.24 0 16.93-7.69 7.69-7.69 7.69-16.93V-640H592.31q-13.93 0-23.12-9.19-9.19-9.19-9.19-23.12ZM240-800v160-160 640-640Z"/><path fill="white" d="M330-630.0h140a20.0 20.0 0 0 1 0 40h-140a20.0 20.0 0 0 1 0-40ZM330-520.0h300a20.0 20.0 0 0 1 0 40h-300a20.0 20.0 0 0 1 0-40Z"/><path fill="white" transform="translate(480 -265) scale(.36) translate(-480 480)" d="M180.04-495q-33.58 0-56.81-23.19Q100-541.37 100-574.96q0-33.58 23.19-56.81Q146.37-655 179.96-655q33.58 0 56.81 23.19Q260-608.63 260-575.04q0 33.58-23.19 56.81Q213.63-495 180.04-495Zm123.19-183.19Q280-701.37 280-734.96q0-33.58 23.19-56.81Q326.37-815 359.96-815q33.58 0 56.81 23.19Q440-768.63 440-735.04q0 33.58-23.19 56.81Q393.63-655 360.04-655q-33.58 0-56.81-23.19Zm240 0Q520-701.37 520-734.96q0-33.58 23.19-56.81Q566.37-815 599.96-815q33.58 0 56.81 23.19Q680-768.63 680-735.04q0 33.58-23.19 56.81Q633.63-655 600.04-655q-33.58 0-56.81-23.19ZM780.04-495q-33.58 0-56.81-23.19Q700-541.37 700-574.96q0-33.58 23.19-56.81Q746.37-655 779.96-655q33.58 0 56.81 23.19Q860-608.63 860-575.04q0 33.58-23.19 56.81Q813.63-495 780.04-495ZM266-95q-37.31 0-61.65-28.55Q180-152.1 180-191q0-48.92 34.35-83.69 34.34-34.77 67.03-70.46 29-31.77 50.39-67.89 21.38-36.11 49.61-68.11 19.7-22.16 44.57-38Q450.83-535 480-535q30.02 0 55.63 15.23 25.6 15.23 44.52 38.15 28 32 49.12 68.24 21.11 36.23 49.35 68.23 32.69 35.69 67.03 70.46Q780-239.92 780-191q0 38.9-24.35 67.45Q731.31-95 694-95q-54 0-107-9t-107-9q-54 0-107 9t-107 9Z"/>
</svg>
